<svg xmlns="http://www.w3.org/2000/svg" xmlns:svg="http://www.w3.org/2000/svg" id="Capa_1" width="69.561" height="105.2" x="0" y="0" version="1.1" viewBox="0 0 69.561 105.2" xml:space="preserve"><metadata id="metadata63"/><g id="g3" transform="translate(-27.82,0)"><g id="g5"><rect id="rect7" width="8.065" height="14.786" x="46.704" y="53.814"/><path id="path9" d="M 97.305,9.683 C 97.283,3.496 93.715,0 87.512,0 L 51.317,0.056 c -6.974,0 -12.647,5.673 -12.647,12.647 v 27.284 h 3.036 V 12.704 c 0,-5.3 4.312,-9.611 9.611,-9.611 h 27.998 c -1.691,2.354 -1.691,5.621 -1.691,9.611 v 27.284 h 3.034 V 18.267 l 13.123,-0.005 c 0.577,0 1.483,-0.124 2.262,-0.775 0.576,-0.481 1.265,-1.417 1.261,-3.044 0.156,-2.501 0.03,-4.385 0.001,-4.76 z m -2.881,4.669 c 0,0.452 -0.084,0.796 -0.226,0.92 -0.127,0.112 -0.406,0.124 -0.479,0.11 l -13.062,0.005 v -2.684 c 0,-2.343 0.025,-4.085 0.234,-5.422 0.725,-2.973 2.892,-4.452 6.619,-4.452 4.651,0 6.914,2.262 6.914,6.913 l 0.006,0.124 c 0.002,0.019 0.156,1.883 -0.006,4.486 z"/><path id="path11" d="m 59.1,28.638 h 14.222 c 0.839,0 1.52,-0.68 1.52,-1.517 0,-0.839 -0.681,-1.518 -1.52,-1.518 H 59.1 v 3.035 z"/><rect id="rect13" width="5.667" height="3.034" x="51.433" y="25.604"/><path id="path15" d="m 45.499,28.638 h 3.934 v -3.034 h -3.934 c -0.838,0 -1.518,0.679 -1.518,1.518 10e-4,0.836 0.681,1.516 1.518,1.516 z"/><rect id="rect17" width="8.065" height="14.786" x="72.247" y="53.814"/><path id="path19" d="m 43.982,15.233 c 0,0.838 0.68,1.518 1.518,1.518 h 7.268 V 13.716 H 45.5 c -0.838,-10e-4 -1.518,0.68 -1.518,1.517 z"/><path id="path21" d="m 84.668,25.658 0,18.948 -49.234,0 0,-18.948 c -4.32,0.727 -7.614,4.474 -7.614,8.999 l 0,61.405 c 0,5.047 4.09,9.138 9.137,9.138 l 46.188,0 c 5.047,0 9.138,-4.091 9.138,-9.138 l 0,-61.405 C 92.282,30.131 88.987,26.384 84.668,25.658 z M 79,96.245 l -8.691,0 0,-8.69 8.691,0 z m 5.076,-24.946 -49.066,0 0,-19.625 49.065,0 10e-4,19.625 z"/><rect id="rect23" width="10.667" height="3.035" x="54.767" y="13.715"/><path id="path25" d="m 74.84,15.233 c 0,-0.837 -0.68,-1.518 -1.519,-1.518 h -5.89 v 3.035 h 5.89 c 0.84,0 1.519,-0.679 1.519,-1.517 z"/><rect id="rect27" width="8.065" height="14.786" x="59.378" y="53.814"/></g></g></svg>