<svg xmlns="http://www.w3.org/2000/svg" xmlns:svg="http://www.w3.org/2000/svg" id="svg2" width="32" height="32" version="1.1" viewBox="0 0 32 32"><metadata id="metadata10"/><path id="path4" d="M 13.994988,0.02 11.999975,4.7681297 C 11.600973,4.8878304 11.24187,5.0873317 10.882768,5.2868329 L 6.1346384,3.2918204 3.2618204,6.1646384 5.2568329,10.912768 C 5.0573317,11.311771 4.8977307,11.630973 4.7381297,12.029975 L -0.01,14.024988 v 3.990024 l 4.7481297,1.995013 c 0.159601,0.399002 0.319202,0.718204 0.5187032,1.117207 l -1.9950125,4.74813 2.872818,2.872818 4.7481296,-1.995013 c 0.359102,0.159601 0.718205,0.359102 1.117207,0.518703 L 13.994988,32.02 h 3.990024 l 1.995013,-4.74813 c 0.359102,-0.159601 0.758105,-0.319202 1.117207,-0.518703 l 4.74813,1.995013 2.872818,-2.872818 -1.995013,-4.74813 c 0.159601,-0.359102 0.359102,-0.758105 0.518703,-1.117207 L 31.99,18.015012 V 14.024988 L 27.24187,12.029975 C 27.12217,11.670873 26.922668,11.27187 26.723167,10.912768 L 28.71818,6.1646384 25.845362,3.2918204 21.097232,5.2868329 C 20.73813,5.1272319 20.339127,4.9277307 19.980025,4.7681297 L 17.985012,0.02 H 13.994988 z M 15.99,9.9950623 c 3.311721,0 5.985037,2.6733167 5.985037,5.9850377 0,3.31172 -2.673316,5.985037 -5.985037,5.985037 -3.311721,0 -5.985037,-2.673317 -5.985037,-5.985037 0,-3.311721 2.673316,-5.9850377 5.985037,-5.9850377 z"/></svg>