<svg xmlns="http://www.w3.org/2000/svg" xmlns:svg="http://www.w3.org/2000/svg" id="Capa_1" width="100%" height="100%" x="0" y="0" version="1.1" viewBox="0 0 19.924 15.366" xml:space="preserve"><metadata id="metadata43"/><g id="layer1" transform="translate(5.7247159,4.927966)" style="display:inline"><g id="g5" transform="translate(-5.7247161,-5.427966)" style="fill:#000"><path id="path7" d="M 16,7.4809322 16,1.448 l -0.018,0 C 15.939,0.933 15.523,0.5 15,0.5 L 1,0.5 C 0.477,0.5 0.061,0.933 0.017,1.448 L 0,1.448 0,14.5 c 0,0.552 0.448,1 1,1 l 9.966102,0 0,-8.0190678 z M 5,14.5 l -4,0 0,-3 4,0 z m 0,-3.917 -4,0 0,-3.1020678 4,0 z M 5,6.5 l -4,0 0,-3 4,0 z m 5,8 -4,0 0,-3 4,0 z m 0,-3.917 -4,0 0,-3.1020678 4,0 z m 0,-4.083 -4,0 0,-3 4,0 z m 5,0 -4.033898,0 0,-3 L 15,3.5 z" style="fill:#000"/></g><polygon style="fill:#010002" id="polygon9" points="14.438 9.495 18.224 9.495 18.224 14.372 23.429 14.372 23.429 17.909 18.224 17.909 18.224 22.786 14.438 22.786 14.438 17.909 9.242 17.909 9.242 14.372 14.438 14.372" transform="matrix(0.59575041,0,0,0.59575041,0.2414561,-3.1368956)"/></g></svg>