<svg xmlns="http://www.w3.org/2000/svg" xmlns:svg="http://www.w3.org/2000/svg" id="Capa_1" width="100%" height="100%" x="0" y="0" version="1.1" viewBox="0 0 64 64" xml:space="preserve"><metadata id="metadata47"/><path style="fill:#030104" id="path7" d="m 13.251477,18.680699 v 25.51119 h 19.971447 c 0,-0.11548 -0.0132,-0.23096 -0.0132,-0.34314 0,-1.431953 0.201266,-2.817713 0.544406,-4.140787 H 17.738701 V 23.167923 h 41.777376 v 7.232349 c 1.801488,1.306574 3.332423,2.959588 4.483924,4.873257 V 18.680699 H 13.251477 z"/><path style="fill:#030104" id="path9" d="m 50.191889,30.387074 c -7.611783,0 -13.801513,6.193029 -13.801513,13.804815 0,7.615083 6.18973,13.808112 13.801513,13.808112 7.618383,0 13.808112,-6.193029 13.808112,-13.808112 0,-7.611786 -6.189729,-13.804815 -13.808112,-13.804815 z m 0,23.864775 c -5.539742,0 -10.053361,-4.51032 -10.053361,-10.05996 0,-5.543043 4.513619,-10.059962 10.053361,-10.059962 5.556239,0 10.06326,4.516919 10.06326,10.059962 0,5.54964 -4.507021,10.05996 -10.06326,10.05996 z"/><path style="fill:#030104" id="rect11" d="m 48.51413,37.299379 0,4.536718 -4.536716,0 0,3.711858 4.536716,0 0,4.433608 3.60875,0 0,-4.433608 4.536716,0 0,-3.711858 -4.536716,0 0,-4.536718 -3.60875,0 z"/><path id="path3053" d="m -2.2747089e-7,7.310785 0,25.511187 15.77824122747089,0 c 0,-0.11548 -0.0132,-0.23096 -0.0132,-0.343141 0,-1.431952 0.201265,-2.817712 0.544406,-4.140783 l -11.8222259,0 0,-16.540036 41.7773779,0 0,7.232345 c 1.801488,1.306574 3.332423,1.024263 4.483924,2.937932 l 0,-14.657504 z" style="fill:#030104"/></svg>