<svg xmlns="http://www.w3.org/2000/svg" xmlns:svg="http://www.w3.org/2000/svg" id="Capa_1" width="100%" height="100%" x="0" y="0" version="1.1" viewBox="0 0 64 64" xml:space="preserve"><metadata id="metadata47"/><path style="fill:#030104" id="path7" d="m 7.4469824,0 32.1716326,0 0,25.18558 c -0.145631,0 -0.291258,-0.01664 -0.432727,-0.01664 -1.805806,0 -3.55336,0.253814 -5.221858,0.686539 l 0,-20.19673 -20.858304,0 0,52.68459 9.120567,0 c 1.647694,2.271819 3.732276,4.202452 6.145564,5.654585 l -20.9248746,0 0,-63.997921 z"/><path style="fill:#030104" id="path9" d="m 39.616535,64.000001 c -9.599064,0 -17.404805,-7.8099 -17.404805,-17.408967 0,-9.603223 7.805741,-17.413125 17.404805,-17.413125 9.607385,0 17.413125,7.809902 17.413125,17.413125 0,9.599067 -7.80574,17.408967 -17.413125,17.408967 z m 0,-30.095375 c -6.986055,0 -12.678088,5.687872 -12.678088,12.686408 0,6.990217 5.692033,12.686412 12.678088,12.686412 7.006858,0 12.69057,-5.696195 12.69057,-12.686412 0,-6.998536 -5.683712,-12.686408 -12.69057,-12.686408 z"/><rect style="fill:#030104" id="rect11" width="15.994" height="4.594" x="30.985" y="-49.04" transform="scale(1,-1)"/></svg>