<svg xmlns="http://www.w3.org/2000/svg" xmlns:svg="http://www.w3.org/2000/svg" id="Capa_1" width="100%" height="100%" x="0" style="enable-background:new 0 0 57.231 57.231" y="0" version="1.1" viewBox="0 0 57.231 57.231" xml:space="preserve"><metadata id="metadata45"/><g id="g3" transform="matrix(-0.74688714,0,0,0.74688714,49.98783,7.2428246)"><g id="g5"><path style="fill:#010002" id="path7" d="m 23.945,9.373 c -1.652,0 -2.992,1.341 -2.992,2.992 0,1.654 1.34,2.992 2.992,2.992 3.656,0 6.921,2.042 8.524,5.333 0.519,1.062 1.583,1.68 2.691,1.68 0.441,0 0.888,-0.097 1.309,-0.303 1.486,-0.723 2.104,-2.514 1.379,-4.001 C 35.235,12.704 29.906,9.373 23.945,9.373 Z"/><path style="fill:#010002" id="path9" d="M 56.135,50.469 46.164,40.497 C 49.116,36.345 50.869,31.284 50.869,25.812 50.869,11.787 39.459,0.377 25.434,0.377 11.409,0.377 0,11.787 0,25.812 c 0,14.024 11.409,25.434 25.434,25.434 5.859,0 11.245,-2.01 15.549,-5.351 l 9.862,9.862 c 0.73,0.73 1.689,1.096 2.645,1.096 0.958,0 1.915,-0.365 2.645,-1.096 1.461,-1.459 1.461,-3.827 0,-5.288 z M 5.986,25.813 c 0,-10.725 8.726,-19.45 19.45,-19.45 10.724,0 19.45,8.725 19.45,19.45 0,4.462 -1.525,8.566 -4.063,11.852 -0.839,1.085 -1.781,2.086 -2.827,2.973 -3.392,2.878 -7.773,4.625 -12.56,4.625 C 14.711,45.262 5.986,36.537 5.986,25.813 Z"/></g></g></svg>