<svg xmlns="http://www.w3.org/2000/svg" xmlns:svg="http://www.w3.org/2000/svg" id="Capa_1" width="100%" height="100%" x="0" y="0" version="1.1" viewBox="0 0 64 64" xml:space="preserve"><metadata id="metadata47"/><path style="fill:#030104" id="path7" d="M 0,8.0225845 V 40.195267 h 25.1864 c 0,-0.145634 -0.01664,-0.291268 -0.01664,-0.432741 0,-1.805865 0.253819,-3.553476 0.686561,-5.222028 H 5.65893 V 13.681516 h 52.686303 v 9.120863 c 2.271894,1.647748 4.202588,3.732398 5.654769,6.145765 V 8.0225845 H 0 z"/><path style="fill:#030104" id="path9" d="m 46.586309,22.785736 c -9.599376,0 -17.405371,7.810155 -17.405371,17.409531 0,9.603537 7.805995,17.413693 17.405371,17.413693 9.607698,0 17.413693,-7.810156 17.413693,-17.413693 0,-9.599376 -7.805995,-17.409531 -17.413693,-17.409531 z m 0,30.096353 c -6.986282,0 -12.6785,-5.688057 -12.6785,-12.686822 0,-6.990443 5.692218,-12.686821 12.6785,-12.686821 7.007087,0 12.690983,5.696378 12.690983,12.686821 0,6.998765 -5.683896,12.686822 -12.690983,12.686822 z"/><path style="fill:#030104" id="rect11" d="m 44.470452,31.502984 0,5.721345 -5.721345,0 0,4.6811 5.721345,0 0,5.591314 4.551069,0 0,-5.591314 5.721345,0 0,-4.6811 -5.721345,0 0,-5.721345 -4.551069,0 z"/></svg>