<svg xmlns="http://www.w3.org/2000/svg" xmlns:svg="http://www.w3.org/2000/svg" id="Capa_1" width="100%" height="100%" x="0" y="0" version="1.1" viewBox="0 0 64 64" xml:space="preserve"><metadata id="metadata47"/><g id="g2999" transform="matrix(0,4.1609779,4.1609779,0,0.42450802,0)"><path id="path7" d="M 0,1.732 V 9.464 H 6.053 C 6.053,9.429 6.049,9.394 6.049,9.36 6.049,8.926 6.11,8.506 6.214,8.105 H 1.36 V 3.092 h 12.662 v 2.192 c 0.546,0.396 1.01,0.897 1.359,1.477 V 1.732 H 0 z" style="fill:#030104"/><path id="path9" d="m 11.196,5.28 c -2.307,0 -4.183,1.877 -4.183,4.184 0,2.308 1.876,4.185 4.183,4.185 2.309,0 4.185,-1.877 4.185,-4.185 0,-2.307 -1.876,-4.184 -4.185,-4.184 z m 0,7.233 c -1.679,0 -3.047,-1.367 -3.047,-3.049 0,-1.68 1.368,-3.049 3.047,-3.049 1.684,0 3.05,1.369 3.05,3.049 0,1.682 -1.366,3.049 -3.05,3.049 z" style="fill:#030104"/><path id="rect11" d="m 10.6875,7.375 0,1.375 -1.375,0 0,1.125 1.375,0 0,1.34375 1.09375,0 0,-1.34375 1.375,0 0,-1.125 -1.375,0 0,-1.375 -1.09375,0 z" style="fill:#030104"/></g></svg>