<svg xmlns="http://www.w3.org/2000/svg" xmlns:svg="http://www.w3.org/2000/svg" id="svg2" width="64" height="64" version="1.1" viewBox="0 0 64 64"><metadata id="metadata10"/><path id="path4" d="m 32.176541,8.625915 c -12.802013,0 -23.2763867,10.493769 -23.2763867,23.319487 0,12.825717 10.4743737,23.319486 23.2763867,23.319486 6.401005,0 12.336485,-2.506845 16.526231,-6.76265 L 44.513026,44.30473 c -3.142313,3.14813 -7.506635,5.130287 -12.394678,5.130287 -9.659699,0 -17.457288,-7.812028 -17.457288,-17.489615 0,-9.677587 7.797589,-17.489615 17.457288,-17.489615 4.829851,0 9.0196,2.098754 12.161913,5.305183 l -6.342815,6.35456 H 55.394734 V 8.625915 l -6.924723,6.937547 C 44.280261,11.365955 38.519356,8.625915 32.118348,8.625915 z"/></svg>