<svg xmlns="http://www.w3.org/2000/svg" xmlns:svg="http://www.w3.org/2000/svg" id="Capa_1" width="100%" height="100%" x="0" y="0" version="1.1" viewBox="0 0 368.108 439.023" xml:space="preserve"><metadata id="metadata43"/><path style="font-size:medium;font-style:normal;font-variant:normal;font-weight:400;font-stretch:normal;text-indent:0;text-align:start;text-decoration:none;line-height:normal;letter-spacing:normal;word-spacing:normal;text-transform:none;direction:ltr;block-progression:tb;writing-mode:lr-tb;text-anchor:start;baseline-shift:baseline;color:#000;fill:#000;fill-opacity:1;stroke:none;stroke-width:28.45199966;marker:none;visibility:visible;display:inline;overflow:visible;enable-background:accumulate;font-family:Sans;-inkscape-font-specification:Sans" id="rect3031" d="M 19.23946,0 C 8.8726,0 0,8.872532 0,19.239463 L 0,419.7836 c 0,10.36686 8.8726,19.23946 19.23946,19.23946 l 329.62873,0 c 10.36686,0 19.23947,-8.8726 19.23947,-19.23946 l 0,-400.544137 C 368.10766,8.872532 359.23505,0 348.86819,0 L 19.23946,0 z m 14.53154,33.771004 300.56565,0 0,371.518126 -300.56565,0 0,-371.518126 z"/><g id="g3846" transform="matrix(1.1862482,0,0,1.1862482,542.21828,-126.81735)" style="stroke-width:22;stroke-miterlimit:4;stroke-dasharray:none"><path style="font-size:medium;font-style:normal;font-variant:normal;font-weight:400;font-stretch:normal;text-indent:0;text-align:start;text-decoration:none;line-height:normal;letter-spacing:normal;word-spacing:normal;text-transform:none;direction:ltr;block-progression:tb;writing-mode:lr-tb;text-anchor:start;baseline-shift:baseline;color:#000;fill:#000;fill-opacity:1;fill-rule:nonzero;stroke:none;stroke-width:22;marker:none;visibility:visible;display:inline;overflow:visible;enable-background:accumulate;font-family:Sans;-inkscape-font-specification:Sans" id="path3820" d="m -271.5625,281.5625 a 11.0011,11.0011 0 1 0 0,22 l 62.40625,0 a 11.0011,11.0011 0 1 0 0,-22 l -62.40625,0 z"/><path style="font-size:medium;font-style:normal;font-variant:normal;font-weight:400;font-stretch:normal;text-indent:0;text-align:start;text-decoration:none;line-height:normal;letter-spacing:normal;word-spacing:normal;text-transform:none;direction:ltr;block-progression:tb;writing-mode:lr-tb;text-anchor:start;baseline-shift:baseline;color:#000;fill:#000;fill-opacity:1;stroke:none;stroke-width:22;marker:none;visibility:visible;display:inline;overflow:visible;enable-background:accumulate;font-family:Sans;-inkscape-font-specification:Sans" id="path3822" d="m -229.375,238.125 a 11.0011,11.0011 0 0 0 -7.6875,18.90625 l 35.5625,35.53125 -35.5625,35.53125 a 11.004349,11.004349 0 1 0 15.5625,15.5625 l 43.3125,-43.3125 a 11.0011,11.0011 0 0 0 0,-15.5625 L -221.5,241.46875 a 11.0011,11.0011 0 0 0 -7.875,-3.34375 z"/></g><g id="g3842" transform="matrix(1.1862482,0,0,1.1862482,535.12592,-126.81735)" style="stroke-width:22;stroke-miterlimit:4;stroke-dasharray:none"><path style="font-size:medium;font-style:normal;font-variant:normal;font-weight:400;font-stretch:normal;text-indent:0;text-align:start;text-decoration:none;line-height:normal;letter-spacing:normal;word-spacing:normal;text-transform:none;direction:ltr;block-progression:tb;writing-mode:lr-tb;text-anchor:start;baseline-shift:baseline;color:#000;fill:#000;fill-opacity:1;fill-rule:nonzero;stroke:none;stroke-width:22;marker:none;visibility:visible;display:inline;overflow:visible;enable-background:accumulate;font-family:Sans;-inkscape-font-specification:Sans" id="path3824" d="m -387.40625,277.5625 a 11.0011,11.0011 0 1 0 0,22 l 62.40625,0 a 11.0011,11.0011 0 1 0 0,-22 l -62.40625,0 z"/><path style="font-size:medium;font-style:normal;font-variant:normal;font-weight:400;font-stretch:normal;text-indent:0;text-align:start;text-decoration:none;line-height:normal;letter-spacing:normal;word-spacing:normal;text-transform:none;direction:ltr;block-progression:tb;writing-mode:lr-tb;text-anchor:start;baseline-shift:baseline;color:#000;fill:#000;fill-opacity:1;stroke:none;stroke-width:22;marker:none;visibility:visible;display:inline;overflow:visible;enable-background:accumulate;font-family:Sans;-inkscape-font-specification:Sans" id="path3826" d="m -367.5,234.15625 a 11.0011,11.0011 0 0 0 -7.5625,3.3125 l -43.34375,43.34375 a 11.0011,11.0011 0 0 0 0,15.53125 l 43.34375,43.34375 a 11.0011,11.0011 0 1 0 15.53125,-15.5625 l -35.53125,-35.5625 35.53125,-35.53125 a 11.0011,11.0011 0 0 0 -7.96875,-18.875 z"/></g></svg>