<svg xmlns="http://www.w3.org/2000/svg" xmlns:osb="http://www.openswatchbook.org/uri/2009/osb" xmlns:svg="http://www.w3.org/2000/svg" id="Capa_1" width="100%" height="100%" x="0" y="0" version="1.1" viewBox="0 0 317.431 306.452" xml:space="preserve"><metadata id="metadata3111"/><defs id="defs3109"><linearGradient id="linearGradient3784" osb:paint="solid"><stop style="stop-color:#93da22;stop-opacity:1" id="stop3786" offset="0"/></linearGradient></defs><path style="color:#000;fill:#fff;fill-opacity:1;fill-rule:nonzero;stroke:#000;stroke-width:.125;stroke-linecap:butt;stroke-linejoin:bevel;stroke-miterlimit:4;stroke-opacity:1;stroke-dasharray:none;stroke-dashoffset:0;marker:none;visibility:visible;display:inline;overflow:visible;enable-background:accumulate" id="path3135" d="m 270.53087,127.85653 a 15.347017,14.81781 0 1 1 -30.69403,0 15.347017,14.81781 0 1 1 30.69403,0 z" transform="translate(0,21.916439)"/><path style="color:#000;fill:#fff;fill-opacity:1;fill-rule:nonzero;stroke:#000;stroke-width:.125;stroke-linecap:butt;stroke-linejoin:bevel;stroke-miterlimit:4;stroke-opacity:1;stroke-dashoffset:0;marker:none;visibility:visible;display:inline;overflow:visible;enable-background:accumulate" id="rect3132" d="m 88.271814,38.639397 74.300716,0.635049 34.07155,29.362168 0.64446,84.311636 -109.016726,0 z"/><g id="g3069" transform="translate(0,21.916439)"><path style="fill:#010002" id="path3071" d="m 73.634,240.67 -2.116,22.208 c -1.142,11.961 7.675,21.658 19.689,21.658 h 102.717 c 12.015,0 21.06,-9.714 20.206,-21.702 l -1.583,-22.17 H 73.634 v 0.006 z"/><path style="fill:#010002" id="path3073" d="M 285.137,242.112 V 119.553 c 0,-12.015 -9.741,-21.756 -21.756,-21.756 h -37.774 v 57.97 H 59.531 V 97.797 H 21.756 C 9.741,97.797 0,107.538 0,119.553 v 122.558 c 0,12.015 9.741,21.756 21.756,21.756 H 59.53 v -37.6 h 166.071 v 37.6 h 37.774 c 12.021,10e-4 21.762,-9.74 21.762,-21.755 z M 255.636,138.53 c -5.624,0 -10.187,-4.558 -10.187,-10.182 0,-5.624 4.563,-10.182 10.187,-10.182 5.619,0 10.182,4.558 10.182,10.182 0,5.624 -4.563,10.182 -10.182,10.182 z"/><path style="fill:#010002" id="path3075" d="M 210.639,42.52 V 37.565 L 172.299,0.601 h -5.483 c -0.011,0 -0.011,0 -0.011,0 -0.011,0 -0.011,0 -0.011,0 H 95.613 C 84.224,0.601 74.961,9.853 74.961,21.22 V 141.674 H 210.638 V 42.917 c 0.001,-0.131 0.006,-0.261 0.001,-0.397 z m -20.294,77.387 c 0,0.185 -0.141,0.315 -0.343,0.315 h -94.39 c -0.207,0 -0.354,-0.131 -0.354,-0.315 V 21.215 c 0,-0.185 0.152,-0.321 0.354,-0.321 h 59.748 v 12.407 c 0,15.523 13.315,21.158 22.278,21.158 h 12.706 c 0.001,0 0.001,65.448 0.001,65.448 z"/></g><g id="g3790" transform="matrix(1.3783697,0,0,1.3783697,317.85171,-54.698278)"><path style="color:#000;fill:#fd5;fill-opacity:1;stroke:#fff;stroke-width:11.84897518;stroke-linecap:round;stroke-linejoin:round;stroke-miterlimit:4;stroke-opacity:1;stroke-dasharray:none;marker:none;visibility:visible;display:inline;overflow:visible;enable-background:accumulate" id="path3782" d="m -96.739132,83.403098 -27.983118,-10.643894 -24.63225,17.017637 1.47569,-29.902673 -23.79652,-18.167919 28.89515,-7.836974 9.92518,-28.2460279 16.3825,25.0591569 29.930621,0.710913 -18.770201,23.324385 z" transform="matrix(1.4594215,0,0,1.4603248,117.34674,40.120547)"/><path id="path3012" d="m -96.739132,83.403098 -27.983118,-10.643894 -24.63225,17.017637 1.47569,-29.902673 -23.79652,-18.167919 28.89515,-7.836974 9.92518,-28.2460279 16.3825,25.0591569 29.930621,0.710913 -18.770201,23.324385 z" transform="matrix(1.2284555,0,0,1.2289047,87.695579,51.42188)" style="color:#000;fill:none;stroke:#000;stroke-width:14.07852268;stroke-linecap:round;stroke-linejoin:round;stroke-miterlimit:4;stroke-dasharray:none;marker:none;visibility:visible;display:inline;overflow:visible;enable-background:accumulate"/></g></svg>